<svg width="41" height="48" viewBox="0 0 41 48" fill="none" xmlns="http://www.w3.org/2000/svg">
<path fill-rule="evenodd" clip-rule="evenodd" d="M0 20.0674C0 8.98402 8.984 2.28882e-05 20.0674 2.28882e-05C31.1508 2.28882e-05 40.1348 8.98402 40.1348 20.0674C40.1348 27.2577 36.4239 33.3068 32.3898 37.771C28.3434 42.2486 23.8215 45.2999 21.8549 46.5245C20.7624 47.2118 19.3724 47.2118 18.2798 46.5245C16.3143 45.2999 11.7914 42.2486 7.745 37.771C3.7109 33.3068 0 27.2577 0 20.0674ZM9.4656 17.3218C10.4865 12.6713 16.1342 10.7458 19.6732 13.8867C19.8091 14.006 19.9408 14.1388 20.0674 14.2705C20.1939 14.1373 20.3257 14.0092 20.4626 13.8867C24.0016 10.7469 29.6503 12.6723 30.6712 17.3218C31.3442 20.2166 30.2822 22.7245 28.6233 24.8229C26.9716 26.9119 24.6819 28.6563 22.7863 30.0538C21.1691 31.2429 18.9667 31.2429 17.3495 30.0538C15.4539 28.6563 13.1642 26.913 11.5125 24.8229C9.8536 22.7235 8.7916 20.2166 9.4646 17.3218H9.4656Z" fill="black"/>
<path fill-rule="evenodd" clip-rule="evenodd" d="M0 20.0674C0 8.984 8.984 0 20.0674 0C31.1508 0 40.1348 8.984 40.1348 20.0674C40.1348 27.2577 36.4239 33.3068 32.3898 37.771C28.3434 42.2486 23.8215 45.2999 21.8549 46.5245C20.7624 47.2118 19.3724 47.2118 18.2798 46.5245C16.3143 45.2999 11.7914 42.2486 7.745 37.771C3.7109 33.3068 0 27.2577 0 20.0674ZM9.4656 17.3218C10.4865 12.6713 16.1342 10.7458 19.6732 13.8867C19.8091 14.006 19.9408 14.1388 20.0674 14.2705C20.1939 14.1373 20.3257 14.0092 20.4626 13.8867C24.0016 10.7469 29.6503 12.6723 30.6712 17.3218C31.3442 20.2166 30.2822 22.7245 28.6233 24.8229C26.9716 26.9119 24.6819 28.6563 22.7863 30.0538C21.1691 31.2429 18.9667 31.2429 17.3495 30.0538C15.4539 28.6563 13.1642 26.913 11.5125 24.8229C9.8536 22.7235 8.7916 20.2166 9.4646 17.3218H9.4656Z" fill="#AD49DC"/>
<path fill-rule="evenodd" clip-rule="evenodd" d="M0 20.0674C0 8.984 8.984 0 20.0674 0C31.1508 0 40.1348 8.984 40.1348 20.0674C40.1348 27.2577 36.4239 33.3068 32.3898 37.771C28.3434 42.2486 23.8215 45.2999 21.8549 46.5245C20.7624 47.2118 19.3724 47.2118 18.2798 46.5245C16.3143 45.2999 11.7914 42.2486 7.745 37.771C3.7109 33.3068 0 27.2577 0 20.0674ZM9.4656 17.3218C10.4865 12.6713 16.1342 10.7458 19.6732 13.8867C19.8091 14.006 19.9408 14.1388 20.0674 14.2705C20.1939 14.1373 20.3257 14.0092 20.4626 13.8867C24.0016 10.7469 29.6503 12.6723 30.6712 17.3218C31.3442 20.2166 30.2822 22.7245 28.6233 24.8229C26.9716 26.9119 24.6819 28.6563 22.7863 30.0538C21.1691 31.2429 18.9667 31.2429 17.3495 30.0538C15.4539 28.6563 13.1642 26.913 11.5125 24.8229C9.8536 22.7235 8.7916 20.2166 9.4646 17.3218H9.4656Z" fill="#7E22AA"/>
<ellipse cx="20.5674" cy="19.52" rx="13.5" ry="11" fill="#7E22AA"/>
<g clip-path="url(#clip0_156_2081)">
<path d="M20.0674 19.52C16.9004 19.52 14.2244 22.2855 13.3604 25.8375C12.9804 27.3995 13.5534 29.0575 14.9599 29.8365C16.0749 30.454 17.7334 31.02 20.0674 31.02C22.4014 31.02 24.0604 30.454 25.1754 29.8365C26.5819 29.0575 27.1544 27.3995 26.7744 25.8375C25.9104 22.285 23.2344 19.52 20.0674 19.52Z" stroke="#FBEDED" stroke-width="1.5" stroke-linecap="round" stroke-linejoin="round"/>
<path d="M9.56738 18.742C9.56738 20.123 10.4624 21.52 11.5674 21.52C12.6724 21.52 13.5674 20.123 13.5674 18.742C13.5674 17.3615 12.6724 16.52 11.5674 16.52C10.4624 16.52 9.56738 17.3615 9.56738 18.742Z" stroke="#FBEDED" stroke-width="1.5" stroke-linecap="round" stroke-linejoin="round"/>
<path d="M30.5674 18.742C30.5674 20.123 29.6724 21.52 28.5674 21.52C27.4624 21.52 26.5674 20.123 26.5674 18.742C26.5674 17.3615 27.4624 16.52 28.5674 16.52C29.6724 16.52 30.5674 17.3615 30.5674 18.742Z" stroke="#FBEDED" stroke-width="1.5" stroke-linecap="round" stroke-linejoin="round"/>
<path d="M14.8174 14.242C14.8174 15.623 15.7124 17.02 16.8174 17.02C17.9224 17.02 18.8174 15.623 18.8174 14.242C18.8174 12.8615 17.9224 12.02 16.8174 12.02C15.7124 12.02 14.8174 12.8615 14.8174 14.242Z" stroke="#FBEDED" stroke-width="1.5" stroke-linecap="round" stroke-linejoin="round"/>
<path d="M25.3174 14.242C25.3174 15.623 24.4224 17.02 23.3174 17.02C22.2124 17.02 21.3174 15.623 21.3174 14.242C21.3174 12.8615 22.2124 12.02 23.3174 12.02C24.4224 12.02 25.3174 12.8615 25.3174 14.242Z" stroke="#FBEDED" stroke-width="1.5" stroke-linecap="round" stroke-linejoin="round"/>
</g>
<defs>
<clipPath id="clip0_156_2081">
<rect width="24" height="24" fill="white" transform="translate(8.06738 9.52002)"/>
</clipPath>
</defs>
</svg>
