<svg width="127" height="93" viewBox="0 0 127 93" fill="none" xmlns="http://www.w3.org/2000/svg">
<g filter="url(#filter0_d_140_519)">
<path d="M42.6006 39.6934V41.0645H38.1475V39.6934H42.6006ZM38.669 36.2188V44.75H36.9112V36.2188H38.669ZM43.8545 36.2188V44.75H42.1026V36.2188H43.8545ZM48.3688 41.6445V41.5215C48.3688 41.0566 48.4352 40.6289 48.568 40.2383C48.7009 39.8438 48.8942 39.502 49.1481 39.2129C49.402 38.9238 49.7145 38.6992 50.0856 38.5391C50.4567 38.375 50.8825 38.293 51.363 38.293C51.8434 38.293 52.2712 38.375 52.6462 38.5391C53.0212 38.6992 53.3356 38.9238 53.5895 39.2129C53.8473 39.502 54.0427 39.8438 54.1755 40.2383C54.3083 40.6289 54.3747 41.0566 54.3747 41.5215V41.6445C54.3747 42.1055 54.3083 42.5332 54.1755 42.9277C54.0427 43.3184 53.8473 43.6602 53.5895 43.9531C53.3356 44.2422 53.0231 44.4668 52.652 44.627C52.2809 44.7871 51.8552 44.8672 51.3747 44.8672C50.8942 44.8672 50.4665 44.7871 50.0915 44.627C49.7204 44.4668 49.4059 44.2422 49.1481 43.9531C48.8942 43.6602 48.7009 43.3184 48.568 42.9277C48.4352 42.5332 48.3688 42.1055 48.3688 41.6445ZM50.0563 41.5215V41.6445C50.0563 41.9102 50.0798 42.1582 50.1266 42.3887C50.1735 42.6191 50.2477 42.8223 50.3493 42.998C50.4548 43.1699 50.5915 43.3047 50.7595 43.4023C50.9274 43.5 51.1325 43.5488 51.3747 43.5488C51.6091 43.5488 51.8102 43.5 51.9782 43.4023C52.1462 43.3047 52.2809 43.1699 52.3825 42.998C52.4841 42.8223 52.5583 42.6191 52.6052 42.3887C52.6559 42.1582 52.6813 41.9102 52.6813 41.6445V41.5215C52.6813 41.2637 52.6559 41.0215 52.6052 40.7949C52.5583 40.5645 52.4821 40.3613 52.3766 40.1855C52.2751 40.0059 52.1403 39.8652 51.9723 39.7637C51.8044 39.6621 51.6012 39.6113 51.363 39.6113C51.1247 39.6113 50.9216 39.6621 50.7536 39.7637C50.5895 39.8652 50.4548 40.0059 50.3493 40.1855C50.2477 40.3613 50.1735 40.5645 50.1266 40.7949C50.0798 41.0215 50.0563 41.2637 50.0563 41.5215ZM60.4593 39.7227V44.75H58.7659V38.4102H60.3538L60.4593 39.7227ZM60.2249 41.3574H59.7562C59.7562 40.916 59.8089 40.5098 59.9144 40.1387C60.0238 39.7637 60.182 39.4395 60.389 39.166C60.5999 38.8887 60.8597 38.6738 61.1683 38.5215C61.4769 38.3691 61.8343 38.293 62.2405 38.293C62.5218 38.293 62.7796 38.3359 63.014 38.4219C63.2484 38.5039 63.4495 38.6348 63.6175 38.8145C63.7894 38.9902 63.9222 39.2207 64.0159 39.5059C64.1097 39.7871 64.1566 40.125 64.1566 40.5195V44.75H62.4691V40.707C62.4691 40.418 62.43 40.1953 62.3519 40.0391C62.2738 39.8828 62.1624 39.7734 62.0179 39.7109C61.8773 39.6484 61.7073 39.6172 61.5081 39.6172C61.2894 39.6172 61.098 39.6621 60.9339 39.752C60.7738 39.8418 60.6409 39.9668 60.5355 40.127C60.43 40.2832 60.3519 40.4668 60.3011 40.6777C60.2503 40.8887 60.2249 41.1152 60.2249 41.3574ZM63.9984 41.1641L63.3948 41.2402C63.3948 40.8262 63.4456 40.4414 63.5472 40.0859C63.6527 39.7305 63.807 39.418 64.0101 39.1484C64.2171 38.8789 64.473 38.6699 64.7777 38.5215C65.0823 38.3691 65.4339 38.293 65.8323 38.293C66.137 38.293 66.4144 38.3379 66.6644 38.4277C66.9144 38.5137 67.1273 38.6523 67.303 38.8438C67.4827 39.0312 67.6195 39.2773 67.7132 39.582C67.8109 39.8867 67.8597 40.2598 67.8597 40.7012V44.75H66.1663V40.7012C66.1663 40.4082 66.1273 40.1855 66.0491 40.0332C65.9749 39.877 65.8655 39.7695 65.721 39.7109C65.5804 39.6484 65.4124 39.6172 65.2171 39.6172C65.014 39.6172 64.8363 39.6582 64.6839 39.7402C64.5316 39.8184 64.4046 39.9277 64.303 40.0684C64.2015 40.209 64.1253 40.373 64.0745 40.5605C64.0238 40.7441 63.9984 40.9453 63.9984 41.1641ZM75.4443 44.8672C74.9521 44.8672 74.5107 44.7891 74.1201 44.6328C73.7295 44.4727 73.3974 44.252 73.124 43.9707C72.8545 43.6895 72.6474 43.3633 72.5029 42.9922C72.3584 42.6172 72.2861 42.2188 72.2861 41.7969V41.5625C72.2861 41.082 72.3545 40.6426 72.4912 40.2441C72.6279 39.8457 72.8232 39.5 73.0771 39.207C73.3349 38.9141 73.6474 38.6895 74.0146 38.5332C74.3818 38.373 74.7959 38.293 75.2568 38.293C75.706 38.293 76.1045 38.3672 76.4521 38.5156C76.7998 38.6641 77.0908 38.875 77.3252 39.1484C77.5634 39.4219 77.7431 39.75 77.8642 40.1328C77.9853 40.5117 78.0459 40.9336 78.0459 41.3984V42.1016H73.0068V40.9766H76.3877V40.8477C76.3877 40.6133 76.3447 40.4043 76.2588 40.2207C76.1767 40.0332 76.0517 39.8848 75.8838 39.7754C75.7158 39.666 75.5009 39.6113 75.2392 39.6113C75.0166 39.6113 74.8252 39.6602 74.665 39.7578C74.5048 39.8555 74.374 39.9922 74.2724 40.168C74.1748 40.3438 74.1005 40.5508 74.0498 40.7891C74.0029 41.0234 73.9795 41.2812 73.9795 41.5625V41.7969C73.9795 42.0508 74.0146 42.2852 74.0849 42.5C74.1591 42.7148 74.2627 42.9004 74.3955 43.0566C74.5322 43.2129 74.6963 43.334 74.8877 43.4199C75.083 43.5059 75.3037 43.5488 75.5498 43.5488C75.8545 43.5488 76.1377 43.4902 76.3994 43.373C76.665 43.252 76.8935 43.0703 77.0849 42.8281L77.9052 43.7188C77.7724 43.9102 77.5908 44.0938 77.3603 44.2695C77.1338 44.4453 76.8603 44.5898 76.54 44.7031C76.2197 44.8125 75.8545 44.8672 75.4443 44.8672Z" fill="#D27C2C"/>
</g>
<path d="M58.881 31.256C56.1397 31.256 54.0383 30.44 52.577 28.808C51.1157 27.176 50.385 24.92 50.385 22.04C50.385 20.312 50.7157 18.7653 51.377 17.4C52.049 16.0347 53.0197 14.9573 54.289 14.168C55.5583 13.368 57.1103 12.9627 58.945 12.952C59.873 12.9413 60.7583 13.0587 61.601 13.304C62.4437 13.5493 63.1957 13.9493 63.857 14.504C64.5183 15.048 65.0463 15.7733 65.441 16.68C65.8463 17.576 66.0543 18.6747 66.065 19.976C66.065 20.6267 66.0543 21.2293 66.033 21.784C66.0117 22.3387 65.9637 22.8133 65.889 23.208H53.009L53.329 20.568H61.521C61.5743 19.704 61.5263 18.9467 61.377 18.296C61.2383 17.6347 60.961 17.1227 60.545 16.76C60.129 16.3867 59.5423 16.2 58.785 16.2C58.049 16.2 57.4037 16.4027 56.849 16.808C56.305 17.2133 55.8837 17.912 55.585 18.904C55.297 19.8853 55.1743 21.24 55.217 22.968C55.2597 24.1307 55.4837 25.064 55.889 25.768C56.305 26.4613 56.865 26.9627 57.569 27.272C58.2837 27.5707 59.1103 27.72 60.049 27.72C60.561 27.72 61.121 27.6773 61.729 27.592C62.337 27.5067 62.913 27.3947 63.457 27.256C64.001 27.1067 64.417 26.9573 64.705 26.808L65.521 29.464C65.1263 29.784 64.5823 30.0827 63.889 30.36C63.2063 30.6267 62.4277 30.84 61.553 31C60.689 31.1707 59.7983 31.256 58.881 31.256ZM74.7243 31.256C73.6363 31.256 72.7349 31.08 72.0203 30.728C71.3163 30.3653 70.7883 29.7947 70.4363 29.016C70.0949 28.2373 69.9243 27.208 69.9243 25.928V16.52H67.7643V13.912C68.5536 13.688 69.1829 13.4747 69.6523 13.272C70.1323 13.0693 70.4789 12.7173 70.6923 12.216C70.7989 11.9707 70.9109 11.6827 71.0283 11.352C71.1563 11.0213 71.2896 10.664 71.4283 10.28C71.5669 9.896 71.7109 9.50667 71.8603 9.112H74.8043V13.176H79.5883V16.52H74.8043V23.864C74.8043 24.9947 74.8629 25.8213 74.9803 26.344C75.0976 26.856 75.3003 27.1867 75.5883 27.336C75.8763 27.4747 76.2923 27.544 76.8363 27.544C77.1136 27.544 77.4336 27.512 77.7963 27.448C78.1589 27.3733 78.5056 27.2827 78.8363 27.176C79.1669 27.0693 79.4229 26.9573 79.6043 26.84L80.2443 29.576C79.9563 29.832 79.5243 30.0933 78.9483 30.36C78.3723 30.616 77.7163 30.8293 76.9803 31C76.2443 31.1707 75.4923 31.256 74.7243 31.256Z" fill="#D27C2C"/>
<path d="M36.2345 31V7.224H38.2665C39.3118 7.224 40.3518 7.18133 41.3865 7.096C42.4212 7.01067 43.5038 6.968 44.6345 6.968C46.4692 6.968 48.0425 7.24 49.3545 7.784C50.6665 8.31733 51.6745 9.18133 52.3785 10.376C53.0932 11.5707 53.4505 13.144 53.4505 15.096C53.4505 17.816 52.6345 19.9227 51.0025 21.416C49.3812 22.9093 47.0292 23.656 43.9465 23.656C43.2745 23.656 42.7252 23.6507 42.2985 23.64C41.8825 23.6293 41.5358 23.624 41.2585 23.624V31H36.2345ZM41.2585 19.88C41.6638 19.9333 42.0798 19.9707 42.5065 19.992C42.9438 20.0133 43.3918 20.024 43.8505 20.024C44.7038 20.024 45.4825 19.88 46.1865 19.592C46.9012 19.304 47.4665 18.8027 47.8825 18.088C48.3092 17.3733 48.5225 16.3707 48.5225 15.08C48.5225 13.5653 48.1278 12.408 47.3385 11.608C46.5492 10.808 45.3598 10.4347 43.7705 10.488C43.3652 10.4987 42.9385 10.52 42.4905 10.552C42.0425 10.584 41.6318 10.6373 41.2585 10.712V19.88Z" fill="#D27C2C"/>
<path d="M35.75 18L32.25 15.75L37 23.25L35.75 18Z" stroke="#D27C2C" stroke-width="0.5"/>
<path d="M35.1936 18.6384L35.4966 18.9718" stroke="#D27C2C" stroke-width="1.5" stroke-linecap="round"/>
<path d="M35.6479 20.0021C35.662 20.0536 35.7053 20.0842 35.7389 20.1233" stroke="#D27C2C" stroke-width="1.5" stroke-linecap="round"/>
<path d="M34.2239 17.4871L34.2542 18.0022" stroke="#D27C2C" stroke-width="0.5" stroke-linecap="round"/>
<path d="M34.042 17.2446L35.1632 17.9113" stroke="#D27C2C" stroke-width="0.5" stroke-linecap="round"/>
<path d="M33.1633 16.5173C33.4045 16.9324 33.6599 17.3404 33.9512 17.7227C34.4343 18.3568 35.0703 18.8624 35.5303 19.5122C35.9372 20.0871 36.0874 20.7677 36.3754 21.396" stroke="#D27C2C" stroke-width="0.5" stroke-linecap="round"/>
<path d="M34.2844 17.2749L35.2541 18.2446" stroke="#D27C2C" stroke-width="0.5" stroke-linecap="round"/>
<path d="M34.2542 17.5779C34.5495 17.9497 34.8406 18.3249 35.1329 18.6991" stroke="#D27C2C" stroke-width="0.5" stroke-linecap="round"/>
<path d="M34.1936 17.6385C34.7221 18.7179 35.2474 19.7985 35.7693 20.8809" stroke="#D27C2C" stroke-width="0.5" stroke-linecap="round"/>
<path d="M34.0723 17.79C34.5129 18.6569 35.0115 19.4932 35.4965 20.3354" stroke="#D27C2C" stroke-width="0.5" stroke-linecap="round"/>
<path d="M34.7087 17.5779C35.1321 17.8048 35.5877 18.0576 36.0252 18.2614C37.3167 18.8629 35.807 18.1374 36.9208 18.6082" stroke="#D27C2C" stroke-width="0.5" stroke-linecap="round"/>
<path d="M35.1025 17.7295L36.8601 18.184" stroke="#D27C2C" stroke-width="0.5" stroke-linecap="round"/>
<path d="M35.4663 17.5779C36.031 18.0145 36.7248 18.1865 37.3754 18.4566" stroke="#D27C2C" stroke-width="0.5" stroke-linecap="round"/>
<path d="M35.4663 17.881C35.9426 18.2153 36.4446 18.4756 36.9511 18.7597" stroke="#D27C2C" stroke-width="0.5" stroke-linecap="round"/>
<path d="M35.1328 17.9415C35.4837 18.1808 35.7904 18.4237 36.1025 18.6991" stroke="#D27C2C" stroke-width="0.5" stroke-linecap="round"/>
<path d="M31.9209 15.578C32.4311 16.4953 32.9756 17.4351 33.601 18.2783C34.9823 20.1407 36.6364 21.9322 38.7692 22.9112" stroke="#D27C2C" stroke-width="0.5" stroke-linecap="round"/>
<path d="M31.9209 15.2144C32.3095 15.625 32.8444 15.9292 33.3081 16.2413C34.1924 16.8363 35.0407 17.4847 35.9259 18.0762C36.594 18.5228 37.3691 18.7769 38.042 19.2143" stroke="#D27C2C" stroke-width="0.5" stroke-linecap="round"/>
<path d="M31.7998 15.0629C33.0337 15.9926 34.3171 16.7952 35.7256 17.4332C36.3032 17.6948 36.8564 17.9889 37.4057 18.3052" stroke="#D27C2C" stroke-width="0.5" stroke-linecap="round"/>
<path d="M41.1934 19.5173C41.8414 19.7361 42.4765 19.9463 43.1546 20.0527C43.8378 20.1599 44.5336 20.1698 45.2236 20.1705C46.2714 20.1716 47.309 20.1312 48.3447 19.9719" stroke="#D27C2C" stroke-width="0.5" stroke-linecap="round"/>
<path d="M40.1328 20.1233C41.5874 20.14 43.0417 20.1466 44.4963 20.1536" stroke="#D27C2C" stroke-width="0.5" stroke-linecap="round"/>
<path d="M41.0723 19.5779C42.2725 19.9286 43.474 20.2726 44.6782 20.6082" stroke="#D27C2C" stroke-width="0.5" stroke-linecap="round"/>
<path d="M41.1025 19.9111L43.9207 20.4263" stroke="#D27C2C" stroke-width="0.5" stroke-linecap="round"/>
<path d="M41.3752 20.184C41.9606 20.2897 42.5461 20.3908 43.1328 20.487" stroke="#D27C2C" stroke-width="0.5" stroke-linecap="round"/>
<path d="M41.3447 20.3052C41.6795 20.4136 41.8607 20.4846 42.21 20.5476C42.9898 20.6882 42.39 20.537 43.1932 20.6385" stroke="#D27C2C" stroke-width="0.5" stroke-linecap="round"/>
<path d="M46.0115 20.1233C46.3799 20.1463 46.8247 19.9173 47.1411 19.7613C47.5933 19.5384 48.0135 19.2462 48.4357 18.9718" stroke="#D27C2C" stroke-width="0.5" stroke-linecap="round"/>
<path d="M64.6333 28.8324C65.6839 28.0399 66.8175 27.4192 67.992 26.8285C68.9688 26.3371 69.6563 25.9955 70.3233 25.1746" stroke="#D27C2C" stroke-width="0.5" stroke-linecap="round"/>
<path d="M64.6333 27.7147C66.6139 26.8013 69.148 25.711 70.3233 23.7521" stroke="#D27C2C" stroke-width="0.5" stroke-linecap="round"/>
<path d="M64.7208 29.6206C66.6333 28.4765 68.7 27.4817 70.5582 26.2652C70.9275 26.0235 71.0953 25.7497 71.2791 25.3794" stroke="#D27C2C" stroke-width="0.5" stroke-linecap="round"/>
<path d="M65.2432 29.2388C66.2977 28.5339 67.3456 27.8204 68.393 27.1051" stroke="#D27C2C" stroke-width="0.5" stroke-linecap="round"/>
<path d="M65.0398 28.8324C65.7825 28.47 66.399 28.0707 67.0719 27.6132" stroke="#D27C2C" stroke-width="0.5" stroke-linecap="round"/>
<path d="M64.3286 29.1373C65.3512 29.053 66.1202 28.6706 67.072 28.3245" stroke="#D27C2C" stroke-width="0.5" stroke-linecap="round"/>
<path d="M64.6333 27.7147C65.9021 27.484 67.1137 26.8984 68.2912 26.3938" stroke="#D27C2C" stroke-width="0.5" stroke-linecap="round"/>
<path d="M64.5317 28.1212L67.6816 27.1051" stroke="#D27C2C" stroke-width="0.5" stroke-linecap="round"/>
<path d="M65.3446 27.8164C65.0709 27.9819 64.8015 28.1528 64.5317 28.3244" stroke="#D27C2C" stroke-width="0.5" stroke-linecap="round"/>
<path d="M64 30C64.645 29.3958 65.5128 29.0644 66.2974 28.5934C66.7232 28.3378 67.0776 28.0228 67.4804 27.7469C67.6203 27.6512 67.9391 27.4547 68.0686 27.3693C68.7335 26.9308 69.3567 26.4574 70 26" stroke="#D27C2C" stroke-width="0.5" stroke-linecap="round"/>
<path d="M65 29C65.7427 28.8374 66.3863 28.4973 67.0099 28.1533C67.5454 27.8578 68.0663 27.5418 68.5198 27.1715C68.8012 26.9416 69.055 26.6952 69.3642 26.4866C69.5924 26.3326 69.7974 26.1737 70 26" stroke="#D27C2C" stroke-width="0.5" stroke-linecap="round"/>
<path d="M66.5649 28.0472C67.096 27.7962 67.5338 27.4503 68.0161 27.1194" stroke="#D27C2C" stroke-width="0.5" stroke-linecap="round"/>
<path d="M67.1597 27.5714L68.0875 27.1194" stroke="#D27C2C" stroke-width="0.5" stroke-linecap="round"/>
<path d="M62 28C63.7303 27.5601 65.3787 26.928 66.7391 26.05C66.9577 25.909 67.1388 25.7446 67.3564 25.603C67.7989 25.3151 68.255 25.0418 68.6866 24.745C69.4622 24.2116 70.2612 23.6938 70.8033 23.0275C71.3227 22.389 71.6738 21.6934 72 21" stroke="#D27C2C" stroke-width="0.3" stroke-linecap="round"/>
<path fill-rule="evenodd" clip-rule="evenodd" d="M82.9326 22.5474C82.9326 11.464 91.9166 2.48 103 2.48C114.083 2.48 123.067 11.464 123.067 22.5474C123.067 29.7377 119.357 35.7868 115.322 40.251C111.276 44.7286 106.754 47.7799 104.788 49.0045C103.695 49.6918 102.305 49.6918 101.212 49.0045C99.2469 47.7799 94.724 44.7286 90.6776 40.251C86.6435 35.7868 82.9326 29.7377 82.9326 22.5474ZM92.3982 19.8018C93.4191 15.1513 99.0668 13.2258 102.606 16.3667C102.742 16.486 102.873 16.6188 103 16.7505C103.127 16.6173 103.258 16.4892 103.395 16.3667C106.934 13.2269 112.583 15.1523 113.604 19.8018C114.277 22.6966 113.215 25.2045 111.556 27.3029C109.904 29.3919 107.615 31.1363 105.719 32.5338C104.102 33.7229 101.899 33.7229 100.282 32.5338C98.3865 31.1363 96.0968 29.393 94.4451 27.3029C92.7862 25.2035 91.7242 22.6966 92.3972 19.8018H92.3982Z" fill="black"/>
<path fill-rule="evenodd" clip-rule="evenodd" d="M82.9326 22.5474C82.9326 11.464 91.9166 2.47998 103 2.47998C114.083 2.47998 123.067 11.464 123.067 22.5474C123.067 29.7377 119.357 35.7868 115.322 40.251C111.276 44.7286 106.754 47.7799 104.788 49.0045C103.695 49.6918 102.305 49.6918 101.212 49.0045C99.2469 47.7799 94.724 44.7286 90.6776 40.251C86.6435 35.7868 82.9326 29.7377 82.9326 22.5474ZM92.3982 19.8018C93.4191 15.1513 99.0668 13.2258 102.606 16.3667C102.742 16.486 102.873 16.6188 103 16.7505C103.127 16.6173 103.258 16.4892 103.395 16.3667C106.934 13.2269 112.583 15.1523 113.604 19.8018C114.277 22.6966 113.215 25.2045 111.556 27.3029C109.904 29.3919 107.615 31.1363 105.719 32.5338C104.102 33.7229 101.899 33.7229 100.282 32.5338C98.3865 31.1363 96.0968 29.393 94.4451 27.3029C92.7862 25.2035 91.7242 22.6966 92.3972 19.8018H92.3982Z" fill="#AD49DC"/>
<path fill-rule="evenodd" clip-rule="evenodd" d="M82.9326 22.5474C82.9326 11.464 91.9166 2.47998 103 2.47998C114.083 2.47998 123.067 11.464 123.067 22.5474C123.067 29.7377 119.357 35.7868 115.322 40.251C111.276 44.7286 106.754 47.7799 104.788 49.0045C103.695 49.6918 102.305 49.6918 101.212 49.0045C99.2469 47.7799 94.724 44.7286 90.6776 40.251C86.6435 35.7868 82.9326 29.7377 82.9326 22.5474ZM92.3982 19.8018C93.4191 15.1513 99.0668 13.2258 102.606 16.3667C102.742 16.486 102.873 16.6188 103 16.7505C103.127 16.6173 103.258 16.4892 103.395 16.3667C106.934 13.2269 112.583 15.1523 113.604 19.8018C114.277 22.6966 113.215 25.2045 111.556 27.3029C109.904 29.3919 107.615 31.1363 105.719 32.5338C104.102 33.7229 101.899 33.7229 100.282 32.5338C98.3865 31.1363 96.0968 29.393 94.4451 27.3029C92.7862 25.2035 91.7242 22.6966 92.3972 19.8018H92.3982Z" fill="#7E22AA"/>
<ellipse cx="103.5" cy="22" rx="13.5" ry="11" fill="#7E22AA"/>
<path d="M103 22C99.833 22 97.157 24.7655 96.293 28.3175C95.913 29.8795 96.486 31.5375 97.8925 32.3165C99.0075 32.934 100.666 33.5 103 33.5C105.334 33.5 106.993 32.934 108.108 32.3165C109.514 31.5375 110.087 29.8795 109.707 28.3175C108.843 24.765 106.167 22 103 22Z" stroke="#FBEDED" stroke-width="1.5" stroke-linecap="round" stroke-linejoin="round"/>
<path d="M92.5 21.222C92.5 22.603 93.395 24 94.5 24C95.605 24 96.5 22.603 96.5 21.222C96.5 19.8415 95.605 19 94.5 19C93.395 19 92.5 19.8415 92.5 21.222Z" stroke="#FBEDED" stroke-width="1.5" stroke-linecap="round" stroke-linejoin="round"/>
<path d="M113.5 21.222C113.5 22.603 112.605 24 111.5 24C110.395 24 109.5 22.603 109.5 21.222C109.5 19.8415 110.395 19 111.5 19C112.605 19 113.5 19.8415 113.5 21.222Z" stroke="#FBEDED" stroke-width="1.5" stroke-linecap="round" stroke-linejoin="round"/>
<path d="M97.75 16.722C97.75 18.103 98.645 19.5 99.75 19.5C100.855 19.5 101.75 18.103 101.75 16.722C101.75 15.3415 100.855 14.5 99.75 14.5C98.645 14.5 97.75 15.3415 97.75 16.722Z" stroke="#FBEDED" stroke-width="1.5" stroke-linecap="round" stroke-linejoin="round"/>
<path d="M108.25 16.722C108.25 18.103 107.355 19.5 106.25 19.5C105.145 19.5 104.25 18.103 104.25 16.722C104.25 15.3415 105.145 14.5 106.25 14.5C107.355 14.5 108.25 15.3415 108.25 16.722Z" stroke="#FBEDED" stroke-width="1.5" stroke-linecap="round" stroke-linejoin="round"/>
<path d="M70.4574 24.9044L68.7192 25.4916" stroke="#D27C2C" stroke-width="0.03" stroke-linecap="round"/>
<path d="M68.8604 25.8439L69.7764 25.3976" stroke="#D27C2C" stroke-width="0.03" stroke-linecap="round"/>
<path d="M68.2261 26.0318L70.9507 25.5386" stroke="#D27C2C" stroke-width="0.05" stroke-linecap="round"/>
<path d="M68.5783 26.1257C68.5623 26.0072 68.5001 25.8661 68.6279 25.7734C68.7727 25.6685 68.9721 25.6746 69.1395 25.6116C69.2472 25.5711 69.3812 25.5134 69.4683 25.4263C69.5571 25.3375 69.2885 25.6026 69.189 25.6795" stroke="#D27C2C" stroke-width="0.05" stroke-linecap="round"/>
<path d="M69.6823 25.3507L68.9307 26.0554" stroke="#D27C2C" stroke-width="0.5" stroke-linecap="round"/>
<path d="M69.5414 25.3271L67.9207 26.4076" stroke="#D27C2C" stroke-width="0.5" stroke-linecap="round"/>
<path d="M70.0582 24.9044L68.2261 26.1728" stroke="#D27C2C" stroke-width="0.5" stroke-linecap="round"/>
<path d="M69.8234 24.8574L68.8604 25.7735" stroke="#D27C2C" stroke-width="0.5" stroke-linecap="round"/>
<path d="M64.7029 27.1593L70.0582 24.3407" stroke="#D27C2C" stroke-width="0.5" stroke-linecap="round"/>
<path d="M64.186 27.3237L73.0177 24.5051" stroke="#D27C2C" stroke-width="0.5" stroke-linecap="round"/>
<path d="M64.1392 27.3707C66.3549 26.7494 68.5561 26.073 70.7629 25.4211" stroke="#D27C2C" stroke-width="0.5" stroke-linecap="round"/>
<path d="M64.3269 27.2297L70.4809 24.693" stroke="#D27C2C" stroke-width="0.5" stroke-linecap="round"/>
<path d="M31.7222 15.2845L31.7924 15.5373" stroke="#D27C2C" stroke-width="0.3" stroke-linecap="round"/>
<path d="M31.7222 15.1722L31.7643 15.2565" stroke="#D27C2C" stroke-width="0.3" stroke-linecap="round"/>
<defs>
<filter id="filter0_d_140_519" x="35.9112" y="36.2188" width="43.1347" height="10.6484" filterUnits="userSpaceOnUse" color-interpolation-filters="sRGB">
<feFlood flood-opacity="0" result="BackgroundImageFix"/>
<feColorMatrix in="SourceAlpha" type="matrix" values="0 0 0 0 0 0 0 0 0 0 0 0 0 0 0 0 0 0 127 0" result="hardAlpha"/>
<feOffset dy="1"/>
<feGaussianBlur stdDeviation="0.5"/>
<feComposite in2="hardAlpha" operator="out"/>
<feColorMatrix type="matrix" values="0 0 0 0 0 0 0 0 0 0 0 0 0 0 0 0 0 0 0.25 0"/>
<feBlend mode="normal" in2="BackgroundImageFix" result="effect1_dropShadow_140_519"/>
<feBlend mode="normal" in="SourceGraphic" in2="effect1_dropShadow_140_519" result="shape"/>
</filter>
</defs>
</svg>
